<svg width="50" height="51" viewBox="0 0 50 51" fill="none" xmlns="http://www.w3.org/2000/svg">
<g clip-path="url(#clip0_206_229)">
<path d="M50 25.5C50 11.6914 38.8086 0.5 25 0.5C11.1914 0.5 0 11.6914 0 25.5C0 37.9795 9.13672 48.3223 21.0957 50.1982V32.7324H14.7529V25.5H21.0957V19.9932C21.0957 13.7324 24.8213 10.2676 30.5342 10.2676C33.2734 10.2676 36.1367 10.7607 36.1367 10.7607V16.9111H32.9863C29.877 16.9111 28.918 18.8428 28.918 20.8154V25.5H35.8496L34.7402 32.7324H28.918V50.1982C40.8633 48.3223 50 37.9795 50 25.5Z" fill="#1877F2"/>
<path d="M34.7256 32.7324L35.8359 25.5H28.9043V20.8154C28.9043 18.8428 29.877 16.9111 32.9727 16.9111H36.123V10.7607C36.123 10.7607 33.2598 10.2676 30.5205 10.2676C24.8086 10.2676 21.082 13.7334 21.082 19.9932V25.5H14.7393V32.7324H21.082V50.1982C22.3564 50.4033 23.6572 50.5 24.9863 50.5C26.3154 50.5 27.6162 50.3906 28.8906 50.1982V32.7324H34.7256Z" fill="white"/>
</g>
<defs>
<clipPath id="clip0_206_229">
<rect width="50" height="50" fill="white" transform="translate(0 0.5)"/>
</clipPath>
</defs>
</svg>
