<svg width="42" height="105" viewBox="0 0 42 105" fill="none" xmlns="http://www.w3.org/2000/svg">
<circle cx="7.5" cy="7.5" r="7.5" transform="matrix(1 0 0 -1 0 105)" fill="#CCCCCC"/>
<circle cx="7.5" cy="7.5" r="7.5" transform="matrix(1 0 0 -1 13.1523 97.5)" fill="#CCCCCC"/>
<circle cx="7.5" cy="7.5" r="7.5" transform="matrix(1 0 0 -1 13.1523 82.5)" fill="#CCCCCC"/>
<circle cx="7.5" cy="7.5" r="7.5" transform="matrix(1 0 0 -1 13.1523 67.5)" fill="#CCCCCC"/>
<circle cx="7.5" cy="7.5" r="7.5" transform="matrix(1 0 0 -1 13.1523 52.5)" fill="#CCCCCC"/>
<circle cx="7.5" cy="7.5" r="7.5" transform="matrix(1 0 0 -1 13.1523 37.5)" fill="#CCCCCC"/>
<circle cx="7.5" cy="7.5" r="7.5" transform="matrix(1 0 0 -1 13.1523 22.5)" fill="#CCCCCC"/>
<circle cx="7.5" cy="7.5" r="7.5" transform="matrix(1 0 0 -1 26.3691 30)" fill="#CCCCCC"/>
<circle cx="7.5" cy="7.5" r="7.5" transform="matrix(1 0 0 -1 26.3691 15)" fill="#CCCCCC"/>
<circle cx="7.5" cy="7.5" r="7.5" transform="matrix(1 0 0 -1 26.3691 45)" fill="#CCCCCC"/>
<circle cx="7.5" cy="7.5" r="7.5" transform="matrix(1 0 0 -1 26.3691 60)" fill="#CCCCCC"/>
<circle cx="7.5" cy="7.5" r="7.5" transform="matrix(1 0 0 -1 26.3691 75)" fill="#CCCCCC"/>
<circle cx="7.5" cy="7.5" r="7.5" transform="matrix(1 0 0 -1 26.3691 90)" fill="#CCCCCC"/>
<circle cx="7.5" cy="7.5" r="7.5" transform="matrix(1 0 0 -1 0 75)" fill="#CCCCCC"/>
<circle cx="7.5" cy="7.5" r="7.5" transform="matrix(1 0 0 -1 0 60)" fill="#CCCCCC"/>
<circle cx="7.5" cy="7.5" r="7.5" transform="matrix(1 0 0 -1 0 45)" fill="#CCCCCC"/>
<circle cx="7.5" cy="7.5" r="7.5" transform="matrix(1 0 0 -1 0 30)" fill="#CCCCCC"/>
<circle cx="7.5" cy="7.5" r="7.5" transform="matrix(1 0 0 -1 0 90)" fill="#CCCCCC"/>
</svg>
