<svg width="50" height="51" viewBox="0 0 50 51" fill="none" xmlns="http://www.w3.org/2000/svg">
<mask id="mask0_206_282" style="mask-type:alpha" maskUnits="userSpaceOnUse" x="0" y="0" width="50" height="51">
<circle cx="25" cy="25.5" r="25" fill="#D9D9D9"/>
</mask>
<g mask="url(#mask0_206_282)">
<path d="M25.0079 0.5C14.5714 0.5 11.5186 0.510742 10.9249 0.55957C8.78329 0.738281 7.45028 1.0752 5.99814 1.79883C4.87899 2.35449 3.99618 2.99902 3.12606 3.90234C1.53915 5.54883 0.578213 7.5752 0.230557 9.9834C0.0616116 11.1523 0.0118069 11.3916 0.00204129 17.3643C-0.00186496 19.3555 0.00204129 21.9756 0.00204129 25.4902C0.00204129 35.9219 0.01376 38.9717 0.0635647 39.5645C0.236416 41.6494 0.563565 42.9609 1.25595 44.3955C2.57919 47.1416 5.10556 49.2031 8.08114 49.9727C9.11142 50.2383 10.2501 50.3838 11.711 50.4531C12.3302 50.4805 18.6407 50.499 24.9552 50.499C31.2696 50.499 37.5831 50.4912 38.1876 50.4609C39.88 50.3809 40.8624 50.249 41.9483 49.9688C44.9435 49.1953 47.4239 47.165 48.7735 44.3799C49.4522 42.9795 49.796 41.6182 49.9522 39.6426C49.9864 39.2119 50.0001 32.3428 50.0001 25.4834C50.0001 18.623 49.9845 11.7666 49.9513 11.3359C49.794 9.32812 49.4493 7.97754 48.7491 6.55078C48.1739 5.38281 47.5362 4.50977 46.6095 3.61816C44.9552 2.03809 42.9327 1.07617 40.5226 0.728516C39.3536 0.560547 39.1212 0.510742 33.1456 0.5H25.0079Z" fill="url(#paint0_radial_206_282)"/>
<path d="M25.0079 0.5C14.5714 0.5 11.5186 0.510742 10.9249 0.55957C8.78329 0.738281 7.45028 1.0752 5.99814 1.79883C4.87899 2.35449 3.99618 2.99902 3.12606 3.90234C1.53915 5.54883 0.578213 7.5752 0.230557 9.9834C0.0616116 11.1523 0.0118069 11.3916 0.00204129 17.3643C-0.00186496 19.3555 0.00204129 21.9756 0.00204129 25.4902C0.00204129 35.9219 0.01376 38.9717 0.0635647 39.5645C0.236416 41.6494 0.563565 42.9609 1.25595 44.3955C2.57919 47.1416 5.10556 49.2031 8.08114 49.9727C9.11142 50.2383 10.2501 50.3838 11.711 50.4531C12.3302 50.4805 18.6407 50.499 24.9552 50.499C31.2696 50.499 37.5831 50.4912 38.1876 50.4609C39.88 50.3809 40.8624 50.249 41.9483 49.9688C44.9435 49.1953 47.4239 47.165 48.7735 44.3799C49.4522 42.9795 49.796 41.6182 49.9522 39.6426C49.9864 39.2119 50.0001 32.3428 50.0001 25.4834C50.0001 18.623 49.9845 11.7666 49.9513 11.3359C49.794 9.32812 49.4493 7.97754 48.7491 6.55078C48.1739 5.38281 47.5362 4.50977 46.6095 3.61816C44.9552 2.03809 42.9327 1.07617 40.5226 0.728516C39.3536 0.560547 39.1212 0.510742 33.1456 0.5H25.0079Z" fill="url(#paint1_radial_206_282)"/>
<path d="M25.0079 0.5C14.5714 0.5 11.5186 0.510742 10.9249 0.55957C8.78329 0.738281 7.45028 1.0752 5.99814 1.79883C4.87899 2.35449 3.99618 2.99902 3.12606 3.90234C1.53915 5.54883 0.578213 7.5752 0.230557 9.9834C0.0616116 11.1523 0.0118069 11.3916 0.00204129 17.3643C-0.00186496 19.3555 0.00204129 21.9756 0.00204129 25.4902C0.00204129 35.9219 0.01376 38.9717 0.0635647 39.5645C0.236416 41.6494 0.563565 42.9609 1.25595 44.3955C2.57919 47.1416 5.10556 49.2031 8.08114 49.9727C9.11142 50.2383 10.2501 50.3838 11.711 50.4531C12.3302 50.4805 18.6407 50.499 24.9552 50.499C31.2696 50.499 37.5831 50.4912 38.1876 50.4609C39.88 50.3809 40.8624 50.249 41.9483 49.9688C44.9435 49.1953 47.4239 47.165 48.7735 44.3799C49.4522 42.9795 49.796 41.6182 49.9522 39.6426C49.9864 39.2119 50.0001 32.3428 50.0001 25.4834C50.0001 18.623 49.9845 11.7666 49.9513 11.3359C49.794 9.32812 49.4493 7.97754 48.7491 6.55078C48.1739 5.38281 47.5362 4.50977 46.6095 3.61816C44.9552 2.03809 42.9327 1.07617 40.5226 0.728516C39.3536 0.560547 39.1212 0.510742 33.1456 0.5H25.0079Z" fill="url(#paint2_radial_206_282)"/>
<path d="M25.0079 0.5C14.5714 0.5 11.5186 0.510742 10.9249 0.55957C8.78329 0.738281 7.45028 1.0752 5.99814 1.79883C4.87899 2.35449 3.99618 2.99902 3.12606 3.90234C1.53915 5.54883 0.578213 7.5752 0.230557 9.9834C0.0616116 11.1523 0.0118069 11.3916 0.00204129 17.3643C-0.00186496 19.3555 0.00204129 21.9756 0.00204129 25.4902C0.00204129 35.9219 0.01376 38.9717 0.0635647 39.5645C0.236416 41.6494 0.563565 42.9609 1.25595 44.3955C2.57919 47.1416 5.10556 49.2031 8.08114 49.9727C9.11142 50.2383 10.2501 50.3838 11.711 50.4531C12.3302 50.4805 18.6407 50.499 24.9552 50.499C31.2696 50.499 37.5831 50.4912 38.1876 50.4609C39.88 50.3809 40.8624 50.249 41.9483 49.9688C44.9435 49.1953 47.4239 47.165 48.7735 44.3799C49.4522 42.9795 49.796 41.6182 49.9522 39.6426C49.9864 39.2119 50.0001 32.3428 50.0001 25.4834C50.0001 18.623 49.9845 11.7666 49.9513 11.3359C49.794 9.32812 49.4493 7.97754 48.7491 6.55078C48.1739 5.38281 47.5362 4.50977 46.6095 3.61816C44.9552 2.03809 42.9327 1.07617 40.5226 0.728516C39.3536 0.560547 39.1212 0.510742 33.1456 0.5H25.0079Z" fill="url(#paint3_radial_206_282)"/>
<path d="M25.0098 6.91992C19.9609 6.91992 19.3271 6.94238 17.3447 7.03223C15.3652 7.12305 14.0146 7.43555 12.833 7.89551C11.6104 8.37012 10.5732 9.00488 9.54004 10.0371C8.50586 11.0693 7.87109 12.1064 7.39453 13.3272C6.93359 14.5088 6.62012 15.8594 6.53125 17.8359C6.44238 19.8174 6.41895 20.4512 6.41895 25.4961C6.41895 30.541 6.44141 31.1729 6.53125 33.1543C6.62207 35.1318 6.93555 36.4814 7.39453 37.6631C7.87012 38.8848 8.50488 39.9209 9.53906 40.9541C10.5723 41.9873 11.6094 42.624 12.8311 43.0986C14.0137 43.5576 15.3652 43.8711 17.3438 43.9619C19.3271 44.0518 19.96 44.0742 25.0088 44.0742C30.0576 44.0742 30.6895 44.0518 32.6729 43.9619C34.6523 43.8711 36.0049 43.5586 37.1875 43.0986C38.4102 42.624 39.4453 41.9883 40.4785 40.9551C41.5127 39.9229 42.1475 38.8857 42.624 37.665C43.0811 36.4834 43.3945 35.1328 43.4873 33.1563C43.5762 31.1748 43.5996 30.543 43.5996 25.498C43.5996 20.4531 43.5762 19.8193 43.4873 17.8379C43.3945 15.8604 43.0811 14.5107 42.624 13.3291C42.1475 12.1074 41.5127 11.0713 40.4785 10.0381C39.4443 9.00488 38.4102 8.37012 37.1865 7.89551C36.001 7.43652 34.6494 7.12305 32.6709 7.03223C30.6875 6.94238 30.0566 6.91992 25.0059 6.91992H25.0098ZM23.3428 10.2676C23.8379 10.2666 24.3896 10.2676 25.0107 10.2676C29.9746 10.2676 30.5625 10.2852 32.5225 10.374C34.335 10.457 35.3184 10.7598 35.9736 11.0137C36.8408 11.3506 37.46 11.7529 38.1104 12.4033C38.7607 13.0537 39.1641 13.6729 39.502 14.54C39.7568 15.1943 40.0596 16.1768 40.1426 17.9883C40.2314 19.9463 40.251 20.5352 40.251 25.4922C40.251 30.4502 40.2314 31.0381 40.1426 32.9961C40.0596 34.8076 39.7568 35.79 39.502 36.4443C39.165 37.3115 38.7617 37.9287 38.1104 38.5781C37.46 39.2285 36.8418 39.6309 35.9736 39.9678C35.3193 40.2236 34.335 40.5254 32.5225 40.6074C30.5625 40.6963 29.9736 40.7158 25.0107 40.7158C20.0469 40.7158 19.458 40.6963 17.499 40.6074C15.6865 40.5234 14.7031 40.2217 14.0469 39.9668C13.1797 39.6299 12.5596 39.2275 11.9092 38.5772C11.2588 37.9268 10.8555 37.3096 10.5176 36.4424C10.2627 35.7881 9.95996 34.8057 9.87695 32.9941C9.78809 31.0361 9.77051 30.4473 9.77051 25.4873C9.77051 20.5264 9.78809 19.9414 9.87695 17.9834C9.95996 16.1719 10.2627 15.1895 10.5176 14.5342C10.8545 13.667 11.2578 13.0479 11.9092 12.3975C12.5596 11.7471 13.1797 11.3447 14.0469 11.0068C14.7021 10.751 15.6865 10.4492 17.499 10.3662C19.2139 10.2891 19.8789 10.2656 23.3438 10.2617L23.3428 10.2676ZM34.9336 13.3525C33.7022 13.3525 32.7031 14.3496 32.7031 15.5811C32.7031 16.8115 33.7022 17.8105 34.9336 17.8105C36.165 17.8105 37.1641 16.8125 37.1641 15.5811C37.1641 14.3496 36.165 13.3516 34.9336 13.3525ZM25.0098 15.957C19.7373 15.957 15.4629 20.2285 15.4629 25.4971C15.4629 30.7656 19.7373 35.0352 25.0098 35.0352C30.2822 35.0352 34.5547 30.7656 34.5547 25.4971C34.5547 20.2285 30.2822 15.957 25.0098 15.957ZM25.0098 19.3047C28.4316 19.3047 31.207 22.0772 31.207 25.4971C31.207 28.917 28.4326 31.6895 25.0098 31.6895C21.5869 31.6895 18.8125 28.917 18.8125 25.4971C18.8135 22.0762 21.5879 19.3047 25.0098 19.3047Z" fill="white"/>
</g>
<defs>
<radialGradient id="paint0_radial_206_282" cx="0" cy="0" r="1" gradientUnits="userSpaceOnUse" gradientTransform="translate(48.3859 23.9359) rotate(164.251) scale(31.9473 23.0165)">
<stop stop-color="#FF005F"/>
<stop offset="1" stop-color="#FC01D8"/>
</radialGradient>
<radialGradient id="paint1_radial_206_282" cx="0" cy="0" r="1" gradientUnits="userSpaceOnUse" gradientTransform="translate(13.281 54.3511) rotate(-90) scale(39.911 42.3448)">
<stop stop-color="#FFCC00"/>
<stop offset="0.1242" stop-color="#FFCC00"/>
<stop offset="0.5672" stop-color="#FE4A05"/>
<stop offset="0.6942" stop-color="#FF0F3F"/>
<stop offset="1" stop-color="#FE0657" stop-opacity="0"/>
</radialGradient>
<radialGradient id="paint2_radial_206_282" cx="0" cy="0" r="1" gradientUnits="userSpaceOnUse" gradientTransform="translate(26.2631 49.7947) rotate(-59.8697) scale(16.5035 21.4858)">
<stop stop-color="#FFCC00"/>
<stop offset="1" stop-color="#FFCC00" stop-opacity="0"/>
</radialGradient>
<radialGradient id="paint3_radial_206_282" cx="0" cy="0" r="1" gradientUnits="userSpaceOnUse" gradientTransform="translate(6.78414 2.53762) rotate(164.274) scale(31.5928 10.7637)">
<stop stop-color="#780CFF"/>
<stop offset="1" stop-color="#820BFF" stop-opacity="0"/>
</radialGradient>
</defs>
</svg>
