<svg width="347" height="365" viewBox="0 0 347 365" fill="none" xmlns="http://www.w3.org/2000/svg">
<path d="M174.361 336.996C169.45 336.979 164.561 336.347 159.807 335.113L158.87 334.854L158.001 334.418C126.58 318.661 100.071 297.849 79.2119 272.559C61.9446 251.502 48.4823 227.593 39.4302 201.908C28.6054 171.157 23.3975 138.71 24.0554 106.115C24.0686 105.431 24.0799 104.903 24.0799 104.539C24.0799 88.6944 32.8734 74.7921 46.4823 69.1207C56.8979 64.7802 151.467 25.931 158.299 23.1241C171.168 16.6753 184.895 22.0578 187.092 22.9991C192.02 25.0141 279.443 60.7767 298.335 69.774C317.805 79.0469 323 95.7054 323 104.087C323 142.031 316.429 177.493 303.471 209.487C293.006 235.384 278.173 259.293 259.619 280.17C223.821 320.461 188.014 334.745 187.668 334.871C183.389 336.344 178.887 337.062 174.361 336.996ZM165.941 316.134C169.045 316.83 176.192 317.874 180.851 316.175C186.769 314.016 216.739 298.473 244.745 266.951C283.44 223.399 303.073 168.651 303.102 104.227C303.033 102.921 302.106 93.6122 289.78 87.7421C271.255 78.9188 180.386 41.7569 179.47 41.3824L179.219 41.2759C177.315 40.4778 171.254 38.7967 167.077 40.9862L166.24 41.3762C165.227 41.7923 64.8417 83.0293 54.1355 87.4908C46.6462 90.6118 43.9777 98.3437 43.9777 104.539C43.9777 104.992 43.966 105.65 43.9495 106.501C43.0938 150.583 53.293 259.054 165.941 316.134Z" fill="#5F5F61"/>
<path d="M162.46 32.1722C162.46 32.1722 61.1621 73.7833 50.3087 78.3062C39.4553 82.8292 34.0286 93.6842 34.0286 104.539C34.0286 115.394 25.8886 257.039 162.46 325.523C162.46 325.523 174.855 328.953 184.26 325.523C193.664 322.093 313.051 264.199 313.051 104.087C313.051 104.087 313.051 87.8044 294.057 78.7585C275.064 69.7126 183.234 32.1722 183.234 32.1722C183.234 32.1722 171.957 27.1969 162.46 32.1722Z" fill="#19B100"/>
<path opacity="0.1" d="M173.314 64.7368V286.717C173.314 286.717 71.1112 237.513 72.0156 108.157L173.314 64.7368Z" fill="black"/>
<path d="M163.202 217.496L130.645 175.629L149.578 160.901L164.994 180.725L217.07 125.742L234.484 142.244L163.202 217.496Z" fill="white"/>
<g filter="url(#filter0_bd_652_2)">
<path d="M174.361 336.996C169.45 336.979 164.561 336.347 159.807 335.113L158.87 334.854L158.001 334.418C126.58 318.661 100.071 297.849 79.2119 272.559C61.9446 251.502 48.4823 227.593 39.4302 201.908C28.6054 171.157 23.3975 138.71 24.0554 106.115C24.0686 105.431 24.0799 104.903 24.0799 104.539C24.0799 88.6944 32.8734 74.7921 46.4823 69.1207C56.8979 64.7802 151.467 25.931 158.299 23.1241C171.168 16.6753 184.895 22.0578 187.092 22.9991C192.02 25.0141 279.443 60.7767 298.335 69.774C317.805 79.0469 323 95.7054 323 104.087C323 142.031 316.429 177.493 303.471 209.487C293.006 235.384 278.173 259.293 259.619 280.17C223.821 320.461 188.014 334.745 187.668 334.871C183.389 336.344 178.887 337.062 174.361 336.996ZM165.941 316.134C169.045 316.83 176.192 317.874 180.851 316.175C186.769 314.016 216.739 298.473 244.745 266.951C283.44 223.399 303.073 168.651 303.102 104.227C303.033 102.921 302.106 93.6122 289.78 87.7421C271.255 78.9188 180.386 41.7569 179.47 41.3824L179.219 41.2759C177.315 40.4778 171.254 38.7967 167.077 40.9862L166.24 41.3762C165.227 41.7923 64.8417 83.0293 54.1355 87.4908C46.6462 90.6118 43.9777 98.3437 43.9777 104.539C43.9777 104.992 43.966 105.65 43.9495 106.501C43.0938 150.583 53.293 259.054 165.941 316.134Z" fill="white" fill-opacity="0.4"/>
<path d="M162.46 32.1722C162.46 32.1722 61.1621 73.7833 50.3087 78.3062C39.4553 82.8292 34.0286 93.6842 34.0286 104.539C34.0286 115.394 25.8886 257.039 162.46 325.523C162.46 325.523 174.855 328.953 184.26 325.523C193.664 322.093 313.051 264.199 313.051 104.087C313.051 104.087 313.051 87.8044 294.057 78.7585C275.064 69.7126 183.234 32.1722 183.234 32.1722C183.234 32.1722 171.957 27.1969 162.46 32.1722Z" fill="white" fill-opacity="0.4"/>
<path opacity="0.1" d="M173.314 64.7368V286.717C173.314 286.717 71.1112 237.513 72.0156 108.157L173.314 64.7368Z" fill="white" fill-opacity="0.4"/>
<path d="M163.202 217.496L130.645 175.629L149.578 160.901L164.994 180.725L217.07 125.742L234.484 142.244L163.202 217.496Z" fill="white" fill-opacity="0.4"/>
</g>
<defs>
<filter id="filter0_bd_652_2" x="0" y="0" width="347" height="365" filterUnits="userSpaceOnUse" color-interpolation-filters="sRGB">
<feFlood flood-opacity="0" result="BackgroundImageFix"/>
<feGaussianBlur in="BackgroundImageFix" stdDeviation="1"/>
<feComposite in2="SourceAlpha" operator="in" result="effect1_backgroundBlur_652_2"/>
<feColorMatrix in="SourceAlpha" type="matrix" values="0 0 0 0 0 0 0 0 0 0 0 0 0 0 0 0 0 0 127 0" result="hardAlpha"/>
<feOffset dy="4"/>
<feGaussianBlur stdDeviation="12"/>
<feComposite in2="hardAlpha" operator="out"/>
<feColorMatrix type="matrix" values="0 0 0 0 0 0 0 0 0 0 0 0 0 0 0 0 0 0 0.25 0"/>
<feBlend mode="normal" in2="effect1_backgroundBlur_652_2" result="effect2_dropShadow_652_2"/>
<feBlend mode="normal" in="SourceGraphic" in2="effect2_dropShadow_652_2" result="shape"/>
</filter>
</defs>
</svg>
