<svg width="776" height="742" viewBox="0 0 776 742" fill="none" xmlns="http://www.w3.org/2000/svg">
<g filter="url(#filter0_bd_353_667)">
<path fill-rule="evenodd" clip-rule="evenodd" d="M126.478 110.107C200.412 31.5189 336.185 122.443 442.176 102.218C554.112 80.8581 651.788 -55.7196 756.204 -10.0574C859.157 34.9647 826.731 195.81 881.085 294.157C938.557 398.143 1081.27 459.558 1081.41 578.363C1081.56 697.841 983.943 803.472 881.782 865.412C789.537 921.341 673.97 875.98 567.035 890.232C464.111 903.948 367.966 977.071 268.533 947.14C162.374 915.184 56.5917 835.65 29.0033 728.274C1.95331 622.992 118.335 535.817 135.266 428.448C152.214 320.962 51.92 189.358 126.478 110.107Z" fill="url(#paint0_linear_353_667)" shape-rendering="crispEdges"/>
</g>
<g clip-path="url(#clip0_353_667)">
<path d="M695.677 427.788C705.548 429.11 715.367 430.773 725.134 432.777V434.575C715.429 432.601 705.609 430.961 695.677 429.655C676.834 427.171 657.849 425.914 638.843 425.892H638.201C577.132 425.939 516.788 439.129 461.27 464.565C449.765 469.816 438.519 475.557 427.533 481.787C391.114 502.44 357.843 528.205 328.735 558.297C309.057 578.636 291.422 600.855 276.082 624.636C274.137 627.641 272.234 630.675 270.374 633.738C262.886 646.016 256.025 658.664 249.815 671.634C236.531 699.387 226.333 728.514 219.404 758.491C219.238 759.133 219.093 759.784 218.947 760.436C218.908 760.621 218.859 760.815 218.82 761L216.924 760.572C216.934 760.523 216.943 760.485 216.953 760.436C217.099 759.784 217.245 759.143 217.4 758.491C224.483 727.781 234.946 697.949 248.599 669.543V669.533C255.149 655.863 262.418 642.548 270.374 629.644C272.241 626.61 274.144 623.599 276.082 620.611C291.417 597.028 309.002 574.987 328.589 554.797C340.567 542.449 353.275 530.83 366.644 520.003L366.653 519.994C385.743 504.546 406.109 490.746 427.533 478.743C436.607 473.648 445.81 468.922 455.143 464.565C512.713 437.602 575.543 423.726 639.115 423.937C658.033 423.989 676.927 425.275 695.677 427.788Z" fill="#030303"/>
<path d="M490.867 207.307C520.04 207.307 543.689 183.66 543.689 154.49C543.689 125.319 520.04 101.672 490.867 101.672C461.693 101.672 438.044 125.319 438.044 154.49C438.044 183.66 461.693 207.307 490.867 207.307Z" fill="#AF1111"/>
<path d="M263.294 749.002C264.942 755.091 270.584 758.862 270.584 758.862C270.584 758.862 273.556 752.761 271.909 746.672C270.261 740.583 264.619 736.812 264.619 736.812C264.619 736.812 261.647 742.913 263.294 749.002Z" fill="#030303"/>
<path d="M388.749 749.002C390.397 755.091 396.04 758.862 396.04 758.862C396.04 758.862 399.011 752.761 397.364 746.672C395.716 740.583 390.074 736.812 390.074 736.812C390.074 736.812 387.102 742.913 388.749 749.002Z" fill="#030303"/>
<path d="M725.134 214.997V277.879L695.676 297.735L652.399 326.889L604.308 359.3L528.84 321.57L433.484 273.901L413.626 263.973L393.767 248.083L455.084 193.336L472.695 177.614C493.497 159.043 520.407 148.779 548.293 148.779H658.91C667.607 148.779 676.218 150.492 684.253 153.82C692.287 157.147 699.588 162.025 705.737 168.174C711.887 174.323 716.765 181.622 720.093 189.656C723.421 197.69 725.134 206.301 725.134 214.997Z" fill="#030303"/>
<path d="M695.939 247.801L725.134 216.071C776.182 404.357 780.355 586.385 725.134 760.485H688.091L686.097 758.491L634.456 706.865L604.483 676.895L605.271 671.118L607.994 651.252L613.975 607.561L620.501 559.892L627.026 512.234L633.552 464.565L638.843 425.892L639.115 423.937L640.078 416.897L646.603 369.228L652.399 326.889L653.129 321.57L657.933 286.485L659.927 271.918L695.677 248.083L695.939 247.801Z" fill="#030303"/>
<path d="M393.764 248.081H695.676V760.488H393.764C360.798 573 352.511 398.002 393.764 248.081Z" fill="#F2F2F2"/>
<path d="M566.569 635.366H510.953V760.488H566.569V635.366Z" fill="#030303"/>
<path d="M657.937 559.895H427.53V607.561H657.937V559.895Z" fill="#030303"/>
<path d="M675.536 673.784H577.299V694.107H675.536V673.784Z" fill="#030303"/>
<path d="M500.481 673.784H402.244V694.107H500.481V673.784Z" fill="#030303"/>
<path d="M657.937 464.563H427.53V512.229H657.937V464.563Z" fill="#030303"/>
<path d="M657.937 369.232H427.53V416.897H657.937V369.232Z" fill="#030303"/>
<path d="M657.937 273.9H427.53V321.566H657.937V273.9Z" fill="#030303"/>
<path d="M276.082 533.942H270.369V759.597H276.082V533.942Z" fill="#030303"/>
<path d="M328.81 562.699C329.174 641.605 273.654 705.828 273.654 705.828C273.654 705.828 217.544 642.12 217.18 563.214C216.817 484.308 272.337 420.084 272.337 420.084C278.245 399.178 341.461 437.741 328.81 562.699Z" fill="#C21313"/>
<path opacity="0.1" d="M328.81 562.699C329.174 641.605 273.654 705.828 273.654 705.828C273.654 705.828 217.544 642.12 217.18 563.214C216.817 484.308 272.337 420.084 272.337 420.084C278.245 399.178 341.461 437.741 328.81 562.699Z" fill="black"/>
<path d="M336.291 358.736C336.291 358.736 299.957 358.415 254.949 358.619C233.32 358.717 213.627 358.921 199 359.115V333.959C214.735 321.91 235.489 312.312 254.794 323.184C292.722 344.558 336.291 358.736 336.291 358.736Z" fill="#F2F2F2"/>
<path d="M418.338 127.181C373.333 127.388 336.7 128.053 336.7 128.053C336.7 128.053 380.244 70.3813 418.174 91.7483C456.105 113.115 499.678 127.302 499.678 127.302C499.678 127.302 463.343 126.974 418.338 127.181Z" fill="#F2F2F2"/>
<path d="M543.147 146.912L663.922 141.007C680.579 140.193 696.93 145.693 709.709 156.408C722.487 167.123 730.752 182.264 732.853 198.807L747.503 314.199L696.046 247.86L695.939 247.802L541.96 167.946L538.904 166.361C529.558 161.515 532.631 147.427 543.147 146.912Z" fill="#030303"/>
<path d="M604.542 186.598H506.305V206.921H604.542V186.598Z" fill="#F2F2F2"/>
<path d="M566.613 622.458H520.905C489.069 498.192 489.069 376.314 520.905 256.825H566.613C595.711 380.803 596.755 502.756 566.613 622.458Z" fill="#F2F2F2"/>
</g>
<defs>
<filter id="filter0_bd_353_667" x="0.944336" y="-39.3372" width="1104.47" height="1021.61" filterUnits="userSpaceOnUse" color-interpolation-filters="sRGB">
<feFlood flood-opacity="0" result="BackgroundImageFix"/>
<feGaussianBlur in="BackgroundImageFix" stdDeviation="5"/>
<feComposite in2="SourceAlpha" operator="in" result="effect1_backgroundBlur_353_667"/>
<feColorMatrix in="SourceAlpha" type="matrix" values="0 0 0 0 0 0 0 0 0 0 0 0 0 0 0 0 0 0 127 0" result="hardAlpha"/>
<feOffset dy="4"/>
<feGaussianBlur stdDeviation="12"/>
<feComposite in2="hardAlpha" operator="out"/>
<feColorMatrix type="matrix" values="0 0 0 0 0 0 0 0 0 0 0 0 0 0 0 0 0 0 0.25 0"/>
<feBlend mode="normal" in2="effect1_backgroundBlur_353_667" result="effect2_dropShadow_353_667"/>
<feBlend mode="normal" in="SourceGraphic" in2="effect2_dropShadow_353_667" result="shape"/>
</filter>
<linearGradient id="paint0_linear_353_667" x1="125.507" y1="111.007" x2="891.75" y2="877.25" gradientUnits="userSpaceOnUse">
<stop stop-color="white" stop-opacity="0.4"/>
<stop offset="1" stop-color="#B3ADAD" stop-opacity="0.1"/>
</linearGradient>
<clipPath id="clip0_353_667">
<rect width="566" height="674" fill="white" transform="translate(199 87)"/>
</clipPath>
</defs>
</svg>
