<svg width="1011" height="742" viewBox="0 0 1011 742" fill="none" xmlns="http://www.w3.org/2000/svg">
<g filter="url(#filter0_bd_353_538)">
<path fill-rule="evenodd" clip-rule="evenodd" d="M4.70372 122.995C96.7063 57.3378 217.639 178.449 330.665 179.292C450.028 180.182 578.26 59.7907 676.217 128.004C772.8 195.26 706.653 353.895 742.421 466.022C780.24 584.579 914.326 676.789 890.223 798.876C865.984 921.654 744.131 1010.26 626.527 1053.06C520.336 1091.7 410.862 1021.52 298.087 1014.35C189.542 1007.45 75.8363 1062.96 -20.2113 1011.92C-122.757 957.436 -215.203 854.146 -221.628 738.201C-227.928 624.52 -90.5618 558.699 -51.2505 451.845C-11.896 344.873 -88.0746 189.206 4.70372 122.995Z" fill="url(#paint0_linear_353_538)" shape-rendering="crispEdges"/>
</g>
<g clip-path="url(#clip0_353_538)">
<path d="M96.1871 661.501C120.864 661.501 140.869 641.496 140.869 616.819C140.869 592.141 120.864 572.136 96.1871 572.136C71.5098 572.136 51.5049 592.141 51.5049 616.819C51.5049 641.496 71.5098 661.501 96.1871 661.501Z" fill="#E4E4E4"/>
<path opacity="0.2" d="M63.1951 586.974C59.0272 596.724 58.4618 607.637 61.5999 617.765C64.738 627.893 71.3751 636.575 80.3252 642.26C89.2753 647.945 99.9551 650.262 110.456 648.797C120.958 647.332 130.596 642.181 137.649 634.265C135.103 640.221 131.292 645.553 126.481 649.89C121.67 654.228 115.973 657.468 109.786 659.385C103.598 661.302 97.0678 661.851 90.647 660.994C84.2262 660.137 78.0685 657.895 72.6005 654.422C67.1325 650.949 62.4849 646.328 58.9798 640.881C55.4748 635.433 53.1959 629.289 52.3013 622.873C51.4066 616.457 51.9175 609.924 53.7986 603.725C55.6796 597.526 58.8858 591.811 63.1951 586.974Z" fill="black"/>
<path d="M96.3096 616.819H96.4316L98.6416 743.5H93.9766L96.3096 616.819Z" fill="#030303"/>
<path d="M5.78177 578.175C55.5357 578.175 95.8692 537.841 95.8692 488.087C95.8692 438.334 55.5357 398 5.78177 398C-43.9721 398 -84.3057 438.334 -84.3057 488.087C-84.3057 537.841 -43.9721 578.175 5.78177 578.175Z" fill="#E4E4E4"/>
<path opacity="0.2" d="M-60.7361 427.916C-69.1392 447.572 -70.2791 469.576 -63.9522 489.996C-57.6252 510.415 -44.2436 527.92 -26.1987 539.381C-8.15369 550.843 13.3788 555.515 34.5512 552.562C55.7235 549.609 75.156 539.224 89.3762 523.262C84.2429 535.271 76.5601 546.021 66.8599 554.766C57.1598 563.511 45.6742 570.043 33.1991 573.909C20.724 577.775 7.5575 578.882 -5.38805 577.154C-18.3336 575.426 -30.7487 570.904 -41.7732 563.902C-52.7977 556.9 -62.168 547.584 -69.2349 536.601C-76.3018 525.618 -80.8963 513.229 -82.7001 500.294C-84.5038 487.359 -83.4738 474.186 -79.6812 461.688C-75.8887 449.191 -69.4243 437.667 -60.7361 427.916Z" fill="black"/>
<path d="M6.02916 488.087H6.27715L10.7321 743.5H1.32715L6.02916 488.087Z" fill="#030303"/>
<path d="M599.73 611.3H186.809V733.707H599.73V611.3Z" fill="#F0F0F0"/>
<path d="M417.343 636.597H369.196V733.707H417.343V636.597Z" fill="#CCCCCC"/>
<path d="M575.657 466.859H210.883V579.474H575.657V466.859Z" fill="#F0F0F0"/>
<path d="M612.639 473.795H173.901C173.168 473.795 172.452 473.576 171.845 473.166C171.238 472.756 170.768 472.174 170.494 471.495C170.221 470.815 170.157 470.07 170.31 469.353C170.464 468.637 170.828 467.983 171.356 467.476L291.263 352.22V302.017C291.264 301.043 291.652 300.11 292.34 299.421C293.029 298.733 293.962 298.346 294.936 298.344H318.601C319.575 298.346 320.508 298.733 321.197 299.421C321.885 300.11 322.272 301.043 322.273 302.017V322.413L331.33 313.708C346.151 299.462 365.814 291.353 386.368 291.011C406.922 290.669 426.844 298.12 442.13 311.865L615.094 467.392C615.646 467.889 616.035 468.541 616.209 469.264C616.383 469.986 616.333 470.744 616.067 471.438C615.801 472.131 615.331 472.728 614.719 473.149C614.107 473.57 613.382 473.795 612.639 473.795Z" fill="#CCCCCC"/>
<path d="M307.176 495.421C310.231 495.421 313.255 496.022 316.077 497.191C318.898 498.36 321.462 500.073 323.622 502.233C325.782 504.392 327.495 506.956 328.663 509.778C329.832 512.6 330.434 515.624 330.434 518.678V550.096H283.919V518.678C283.919 515.624 284.521 512.6 285.689 509.778C286.858 506.956 288.571 504.392 290.731 502.233C292.891 500.073 295.454 498.36 298.276 497.191C301.098 496.022 304.122 495.421 307.176 495.421Z" fill="white"/>
<path d="M393.27 495.829C399.438 495.829 405.354 498.279 409.716 502.641C414.077 507.002 416.528 512.918 416.528 519.086V550.504H370.013V519.086C370.013 512.918 372.463 507.002 376.825 502.641C381.186 498.279 387.102 495.829 393.27 495.829Z" fill="white"/>
<path d="M479.363 496.237C485.531 496.237 491.447 498.687 495.808 503.049C500.17 507.41 502.62 513.326 502.62 519.494V550.912H456.105V519.494C456.105 513.326 458.556 507.41 462.917 503.049C467.279 498.687 473.195 496.237 479.363 496.237Z" fill="white"/>
<path d="M513.637 635.373C519.806 635.373 525.721 637.824 530.083 642.185C534.444 646.547 536.895 652.462 536.895 658.631V690.049H490.38V658.631C490.38 652.462 492.83 646.547 497.192 642.185C501.553 637.824 507.469 635.373 513.637 635.373Z" fill="white"/>
<path d="M283.511 635.373C289.68 635.373 295.595 637.824 299.957 642.185C304.318 646.547 306.769 652.462 306.769 658.631V690.049H260.254V658.631C260.254 655.576 260.855 652.552 262.024 649.73C263.193 646.909 264.906 644.345 267.066 642.185C269.226 640.026 271.789 638.312 274.611 637.144C277.433 635.975 280.457 635.373 283.511 635.373Z" fill="white"/>
<path d="M660.057 613.211L582.597 578.937C582.181 578.753 581.732 578.658 581.277 578.658H212.118C211.696 578.658 211.279 578.739 210.889 578.898L126.574 613.172C125.873 613.457 125.292 613.977 124.932 614.643C124.572 615.309 124.454 616.079 124.6 616.822C124.745 617.565 125.144 618.235 125.728 618.716C126.313 619.197 127.046 619.46 127.803 619.46H149.679V732.075H147.231V743.5H639.309V732.075H635.229V619.46H658.736C659.485 619.46 660.21 619.203 660.792 618.732C661.373 618.26 661.775 617.603 661.93 616.871C662.084 616.139 661.983 615.375 661.642 614.709C661.301 614.043 660.741 613.514 660.057 613.211ZM628.7 732.075H156.207V619.46H628.7V732.075Z" fill="#CCCCCC"/>
<path d="M336.146 545.608H276.574V555.4H336.146V545.608Z" fill="#CCCCCC"/>
<path d="M423.463 545.608H363.892V555.4H423.463V545.608Z" fill="#CCCCCC"/>
<path d="M510.781 545.608H451.209V555.4H510.781V545.608Z" fill="#CCCCCC"/>
<path d="M543.423 686.784H483.852V696.577H543.423V686.784Z" fill="#CCCCCC"/>
<path d="M312.481 686.784H252.909V696.577H312.481V686.784Z" fill="#CCCCCC"/>
<path d="M527.866 465.18C527.866 465.82 527.856 466.47 527.846 467.11C527.836 467.88 527.816 468.64 527.786 469.41C527.757 470.08 527.726 470.74 527.687 471.4C527.566 473.61 527.376 475.81 527.116 478.02C527.056 478.58 526.987 479.13 526.906 479.69C526.846 480.12 526.786 480.56 526.716 481C526.646 481.49 526.576 481.98 526.496 482.47C526.336 483.51 526.156 484.55 525.956 485.59C525.856 486.11 525.757 486.63 525.646 487.15C525.436 488.18 525.206 489.22 524.967 490.25C524.947 490.33 524.927 490.42 524.906 490.5C524.786 491.01 524.667 491.51 524.536 492.02C524.496 492.17 524.467 492.31 524.417 492.46C524.326 492.84 524.226 493.22 524.126 493.6C523.987 494.13 523.846 494.65 523.697 495.18C523.456 496 523.217 496.81 522.967 497.63C522.935 497.715 522.909 497.802 522.886 497.89C522.406 499.44 521.896 500.97 521.336 502.49C521.046 503.29 520.737 504.1 520.427 504.9C520.117 505.7 519.796 506.5 519.467 507.29C519.146 508.06 518.816 508.83 518.487 509.59C518.407 509.77 518.326 509.95 518.237 510.13C517.886 510.92 517.526 511.69 517.156 512.46C517.146 512.47 517.146 512.49 517.136 512.5C516.846 513.12 516.536 513.74 516.226 514.35C516.226 514.369 516.219 514.386 516.206 514.4C515.906 515 515.596 515.6 515.276 516.19L514.766 517.16L514.706 517.27C514.066 518.46 513.407 519.64 512.706 520.81C512.556 521.07 512.407 521.33 512.257 521.58C512.107 521.84 511.947 522.1 511.786 522.35C511.687 522.53 511.577 522.71 511.456 522.89C511.246 523.23 511.036 523.58 510.816 523.92C510.776 523.99 510.726 524.06 510.687 524.13C510.306 524.72 509.927 525.3 509.546 525.89C509.076 526.6 508.596 527.3 508.107 528L497.246 545.38L496.776 544.99L496.646 544.87H496.636L496.206 544.51L495.026 543.51C494.667 543.86 494.316 544.21 493.956 544.55C493.816 544.69 493.667 544.82 493.526 544.96C493.417 545.06 493.316 545.16 493.206 545.26C474.431 563.595 449.457 574.212 423.226 575.01H423.197C403.34 575.555 383.684 570.916 366.167 561.55C365.776 561.35 365.397 561.15 365.016 560.92C362.737 559.68 360.507 558.37 358.316 556.97C358.306 556.96 358.296 556.96 358.286 556.95C355.746 555.15 353.266 553.23 350.846 551.19C337.864 540.246 327.592 526.444 320.838 510.866C314.084 495.287 311.03 478.356 311.917 461.4C311.947 460.73 311.987 460.07 312.036 459.4C312.197 456.98 312.443 454.57 312.776 452.17C312.866 451.5 312.967 450.83 313.066 450.17H526.846C527.266 453.23 527.556 456.306 527.716 459.4C527.816 461.33 527.866 463.25 527.866 465.18Z" fill="#F0F0F0"/>
<path d="M526.846 450.17C522.997 424.575 510.092 401.211 490.477 384.325C470.862 367.439 445.839 358.152 419.956 358.152C394.074 358.152 369.051 367.439 349.435 384.325C329.82 401.211 316.915 424.575 313.066 450.17C312.966 450.83 312.866 451.5 312.776 452.17C312.446 454.57 312.2 456.98 312.036 459.4H527.716C527.556 456.31 527.266 453.233 526.846 450.17Z" fill="#C21313"/>
<path d="M426.959 561.547H365.021V512C366.164 489.357 385.517 487.529 403.702 488.744C406.756 488.744 409.78 489.345 412.602 490.514C415.424 491.683 417.988 493.396 420.147 495.555C422.307 497.715 424.02 500.279 425.189 503.1C426.358 505.922 426.959 508.946 426.959 512V561.547Z" fill="#C21313"/>
<path d="M365.016 526.32V526.33C365.016 526.34 365.026 526.34 365.036 526.34L365.016 526.32ZM340.106 450.17C340.066 450.42 340.016 450.67 339.976 450.92C340.016 450.67 340.066 450.42 340.116 450.17H340.106ZM338.866 459.4C338.836 459.78 338.806 460.16 338.786 460.54C338.806 460.16 338.836 459.78 338.876 459.4C338.875 459.33 338.878 459.26 338.886 459.19C338.876 459.26 338.876 459.33 338.866 459.4ZM365.016 526.33C365.016 526.34 365.026 526.34 365.036 526.34L365.016 526.32V526.33ZM340.106 450.17C340.066 450.42 340.016 450.67 339.976 450.92C340.016 450.67 340.066 450.42 340.116 450.17H340.106ZM338.786 460.54C338.806 460.16 338.836 459.78 338.876 459.4C338.875 459.33 338.878 459.26 338.886 459.19C338.876 459.26 338.876 459.33 338.866 459.4C338.836 459.78 338.806 460.16 338.786 460.54ZM647.726 644.5C647.532 644.294 647.325 644.1 647.106 643.92L647.096 643.91L597.576 602.12L596.296 601.04L591.427 596.93L590.206 595.9L583.266 590.04L581.366 588.44L577.437 585.12L575.427 583.42L556.467 567.43L545.596 558.26L544.136 557.03L512.106 530C512.596 529.3 513.076 528.6 513.546 527.89C513.927 527.3 514.306 526.72 514.687 526.13C514.726 526.06 514.776 525.99 514.816 525.92C515.036 525.58 515.246 525.23 515.456 524.89C515.576 524.71 515.686 524.53 515.786 524.35C515.947 524.1 516.106 523.84 516.257 523.58C516.407 523.33 516.556 523.07 516.706 522.81C517.406 521.64 518.066 520.46 518.706 519.27L518.766 519.16L519.276 518.19C519.596 517.6 519.906 517 520.206 516.4C520.219 516.386 520.226 516.369 520.226 516.35C520.536 515.74 520.846 515.12 521.136 514.5C521.146 514.49 521.146 514.47 521.156 514.46C521.526 513.69 521.886 512.92 522.237 512.13C522.326 511.95 522.406 511.77 522.487 511.59C522.816 510.83 523.146 510.06 523.467 509.29C523.796 508.5 524.116 507.7 524.427 506.9C524.737 506.1 525.046 505.29 525.336 504.49C525.886 502.96 526.403 501.427 526.886 499.89C526.909 499.802 526.935 499.715 526.966 499.63C527.216 498.81 527.456 498 527.697 497.18C527.846 496.65 527.987 496.13 528.126 495.6C528.226 495.22 528.326 494.84 528.416 494.46C528.466 494.31 528.496 494.17 528.536 494.02C528.666 493.51 528.786 493.01 528.906 492.5C528.926 492.42 528.946 492.33 528.966 492.25C529.206 491.22 529.436 490.18 529.646 489.15C529.757 488.63 529.856 488.11 529.956 487.59C530.146 486.55 530.336 485.51 530.496 484.47C530.576 483.98 530.646 483.49 530.716 483C530.786 482.56 530.846 482.12 530.906 481.69C530.986 481.13 531.056 480.58 531.116 480.02C531.376 477.81 531.566 475.61 531.686 473.4C531.726 472.74 531.757 472.08 531.786 471.41C531.816 470.64 531.836 469.88 531.846 469.11C531.856 468.47 531.866 467.82 531.866 467.18C531.866 465.25 531.816 463.33 531.716 461.4C531.556 458.31 531.266 455.233 530.846 452.17C527.264 425.985 514.377 401.963 494.542 384.496C474.707 367.03 449.249 357.284 422.821 357.042C396.393 356.799 370.76 366.075 350.607 383.175C330.455 400.274 317.129 424.055 313.066 450.17C312.966 450.83 312.866 451.5 312.776 452.17C312.447 454.57 312.2 456.98 312.036 459.4C311.987 460.07 311.947 460.73 311.917 461.4C311.03 478.356 314.084 495.288 320.838 510.866C327.592 526.445 337.864 540.247 350.846 551.19C353.266 553.23 355.746 555.15 358.286 556.95C358.296 556.96 358.306 556.96 358.316 556.97C359.166 557.57 360.016 558.16 360.876 558.74C362.246 559.64 363.626 560.52 365.016 561.36C365.126 561.42 365.237 561.49 365.346 561.55C366.546 562.27 367.757 562.96 368.966 563.63H368.976C373.481 566.106 378.156 568.259 382.966 570.07C397.081 575.38 412.134 577.742 427.197 577.01H427.226C444.807 576.16 461.925 571.094 477.136 562.24C479.346 560.96 481.526 559.59 483.656 558.13C484.186 557.77 484.726 557.4 485.246 557.03C485.886 556.58 486.526 556.11 487.166 555.64C487.176 555.64 487.176 555.63 487.186 555.63C487.234 555.59 487.284 555.553 487.336 555.52C487.766 555.19 488.206 554.86 488.626 554.54C488.737 554.46 488.846 554.38 488.956 554.29C488.985 554.27 489.012 554.246 489.036 554.22C489.286 554.04 489.526 553.84 489.776 553.65C490.026 553.46 490.266 553.26 490.516 553.06C490.559 553.033 490.599 553.003 490.636 552.97C490.916 552.74 491.196 552.52 491.476 552.29C491.766 552.06 492.046 551.82 492.316 551.59C492.596 551.36 492.866 551.13 493.146 550.89C493.386 550.69 493.636 550.48 493.876 550.26C493.956 550.2 494.026 550.13 494.106 550.06C494.137 550.03 494.171 550.004 494.206 549.98C494.536 549.7 494.856 549.41 495.176 549.12C495.257 549.05 495.326 548.98 495.406 548.91C495.896 548.47 496.386 548.03 496.866 547.57C496.976 547.47 497.096 547.36 497.206 547.26C497.316 547.16 497.417 547.06 497.526 546.96C497.667 546.82 497.816 546.69 497.956 546.55C498.316 546.21 498.667 545.86 499.026 545.51L500.206 546.51L500.636 546.87H500.646L500.776 546.99L501.246 547.38L508.226 553.28L508.377 553.41L508.496 553.5L509.286 554.17L510.866 555.51L512.447 556.84L512.677 557.03L520.026 563.23L521.046 564.09L528.136 570.07L564.836 601.04L566.117 602.12L616.346 644.5L629.226 655.37L634.016 659.41C635.033 660.27 636.209 660.922 637.478 661.327C638.747 661.733 640.083 661.884 641.41 661.772C642.737 661.661 644.03 661.289 645.213 660.678C646.396 660.066 647.447 659.228 648.306 658.21C649.026 657.365 649.597 656.405 649.996 655.37C650.723 653.535 650.895 651.527 650.491 649.595C650.088 647.663 649.126 645.891 647.726 644.5ZM358.056 412.69C368.089 400.801 381.28 391.994 396.105 387.284C410.931 382.574 426.787 382.155 441.841 386.075C456.894 389.994 470.532 398.093 481.179 409.434C491.825 420.776 499.046 434.899 502.007 450.17C502.136 450.84 502.257 451.5 502.366 452.17C502.776 454.56 503.076 456.98 503.257 459.4C503.306 460.07 503.356 460.73 503.386 461.4C503.476 462.9 503.516 464.41 503.516 465.91C503.522 475.009 502.015 484.045 499.056 492.65V492.66C495.75 502.308 490.673 511.254 484.086 519.04C483.946 519.2 483.806 519.37 483.656 519.53C482.336 521.09 480.946 522.59 479.516 524.02C479.507 524.03 479.496 524.05 479.487 524.06C478.996 524.55 478.496 525.05 477.996 525.51C476.976 526.5 475.936 527.44 474.876 528.34C473.286 529.73 471.656 531.033 469.987 532.25C469.426 532.66 468.866 533.06 468.296 533.46C467.737 533.86 467.166 534.24 466.596 534.62C465.456 535.38 464.296 536.11 463.126 536.8C462.546 537.15 461.946 537.49 461.356 537.82C460.766 538.16 460.166 538.48 459.566 538.79C458.966 539.11 458.366 539.42 457.757 539.72C456.546 540.33 455.326 540.9 454.086 541.43C453.466 541.71 452.846 541.97 452.226 542.21C451.836 542.37 451.456 542.53 451.066 542.67C450.914 542.74 450.757 542.801 450.596 542.85C450.386 542.94 450.176 543.02 449.966 543.09C449.898 543.121 449.828 543.148 449.756 543.17C449.326 543.34 448.906 543.49 448.466 543.64C447.836 543.87 447.206 544.08 446.566 544.28C445.926 544.49 445.296 544.69 444.656 544.87C444.016 545.07 443.366 545.25 442.726 545.42C442.076 545.6 441.436 545.77 440.786 545.92C440.096 546.1 439.406 546.26 438.706 546.41C438.096 546.55 437.496 546.67 436.886 546.78C436.316 546.9 435.736 547 435.166 547.1C434.366 547.24 433.566 547.37 432.756 547.48C432.316 547.55 431.886 547.61 431.446 547.65C431.256 547.68 431.076 547.7 430.896 547.72C430.336 547.8 429.776 547.86 429.226 547.91C429.076 547.92 428.936 547.94 428.796 547.95C428.186 548.01 427.566 548.06 426.956 548.11C425.646 548.2 424.346 548.26 423.036 548.29C422.376 548.3 421.706 548.31 421.046 548.31C420.386 548.31 419.726 548.3 419.066 548.28C419.066 548.28 419.066 548.29 419.056 548.28C419.046 548.29 419.046 548.29 419.036 548.28C419.035 548.281 419.033 548.283 419.032 548.283C419.03 548.284 419.028 548.284 419.026 548.284C419.024 548.284 419.023 548.284 419.021 548.283C419.019 548.283 419.018 548.281 419.016 548.28C418.984 548.29 418.949 548.29 418.916 548.28C418.446 548.28 417.976 548.26 417.516 548.23C417.176 548.22 416.826 548.21 416.476 548.18C416.007 548.16 415.537 548.13 415.066 548.09C414.917 548.09 414.766 548.07 414.616 548.06C414.546 548.059 414.476 548.052 414.406 548.04C413.926 548 413.436 547.96 412.956 547.91C412.716 547.89 412.467 547.87 412.226 547.84C411.496 547.76 410.766 547.67 410.046 547.57C409.226 547.47 408.406 547.35 407.596 547.2C407.216 547.15 406.846 547.08 406.476 547.01C405.986 546.93 405.497 546.84 405.006 546.74C404.496 546.64 403.986 546.54 403.476 546.42C403.066 546.33 402.646 546.24 402.236 546.14C402.036 546.1 401.836 546.05 401.646 546C400.596 545.75 399.556 545.48 398.526 545.18C397.876 545 397.226 544.81 396.586 544.61C395.706 544.34 394.836 544.05 393.966 543.74C393.626 543.63 393.296 543.51 392.956 543.38C392.616 543.27 392.286 543.14 391.946 543.01C391.636 542.9 391.326 542.78 391.026 542.66C390.526 542.47 390.036 542.27 389.546 542.07C388.536 541.66 387.546 541.23 386.556 540.77C385.996 540.5 385.436 540.24 384.886 539.97C382.716 538.92 380.58 537.753 378.476 536.47C377.956 536.16 377.436 535.83 376.916 535.5C376.266 535.1 375.636 534.68 375.006 534.26C374.656 534.02 374.316 533.79 373.976 533.55C373.346 533.11 372.726 532.66 372.116 532.21C371.796 531.98 371.476 531.74 371.166 531.5C370.056 530.66 368.966 529.78 367.896 528.88C367.386 528.45 366.876 528.01 366.376 527.56C366.166 527.38 365.956 527.19 365.746 527C365.506 526.78 365.266 526.57 365.036 526.34L365.016 526.32C364.667 526.01 364.316 525.68 363.976 525.35C363.446 524.85 362.926 524.34 362.426 523.82C361.906 523.31 361.406 522.78 360.916 522.26C360.416 521.74 359.936 521.21 359.466 520.67C358.986 520.14 358.516 519.6 358.056 519.05C357.606 518.53 357.166 517.99 356.746 517.46C355.726 516.2 354.753 514.917 353.826 513.61C353.396 513.01 352.986 512.41 352.586 511.8C352.156 511.18 351.746 510.55 351.356 509.92C350.946 509.29 350.556 508.65 350.176 508C350.167 507.978 350.153 507.958 350.136 507.94C349.386 506.67 348.666 505.39 347.996 504.09C347.306 502.77 346.656 501.437 346.046 500.09C345.736 499.42 345.436 498.74 345.156 498.06C344.576 496.69 344.036 495.32 343.536 493.93C343.286 493.26 343.056 492.59 342.826 491.91C342.819 491.865 342.805 491.821 342.786 491.78C342.326 490.4 341.906 489.01 341.536 487.61C341.526 487.59 341.526 487.57 341.516 487.55C341.326 486.86 341.146 486.17 340.986 485.47C340.826 484.86 340.686 484.25 340.556 483.63C340.406 482.94 340.256 482.25 340.126 481.55C340.056 481.19 339.986 480.83 339.926 480.47C339.866 480.17 339.816 479.86 339.766 479.56C339.716 479.26 339.666 478.95 339.616 478.64C339.516 478.03 339.426 477.42 339.346 476.81C339.246 476.09 339.166 475.37 339.086 474.64C338.996 473.77 338.916 472.9 338.846 472.02C338.796 471.43 338.766 470.83 338.736 470.23C338.706 469.68 338.676 469.13 338.666 468.58C338.656 468.551 338.656 468.519 338.666 468.49C338.665 468.489 338.664 468.487 338.663 468.486C338.662 468.484 338.662 468.482 338.662 468.48C338.662 468.478 338.662 468.476 338.663 468.475C338.664 468.473 338.665 468.471 338.666 468.47C338.656 468.46 338.656 468.46 338.666 468.45C338.665 468.449 338.664 468.447 338.663 468.446C338.662 468.444 338.662 468.442 338.662 468.44C338.662 468.438 338.662 468.436 338.663 468.435C338.664 468.433 338.665 468.431 338.666 468.43C338.656 468.21 338.646 467.99 338.646 467.77C338.626 467.12 338.616 466.47 338.616 465.82C338.616 465.23 338.626 464.65 338.636 464.06C338.656 463.24 338.686 462.42 338.726 461.6C338.726 461.42 338.746 461.25 338.756 461.07C338.766 460.89 338.776 460.72 338.786 460.54C338.806 460.16 338.836 459.78 338.876 459.4C338.875 459.33 338.878 459.26 338.886 459.19C338.916 458.76 338.956 458.33 338.996 457.9C339.076 457.04 339.176 456.17 339.286 455.31C339.346 454.88 339.396 454.45 339.466 454.02C339.506 453.72 339.556 453.41 339.606 453.1C339.646 452.79 339.696 452.48 339.756 452.17C339.826 451.76 339.896 451.34 339.976 450.92C340.016 450.67 340.066 450.42 340.116 450.17C340.306 449.17 340.516 448.17 340.746 447.17C340.976 446.16 341.236 445.16 341.516 444.16C341.786 443.15 342.086 442.14 342.406 441.13C342.556 440.62 342.716 440.12 342.896 439.62C343.226 438.61 343.576 437.61 343.966 436.62C344.146 436.13 344.336 435.63 344.546 435.14C344.946 434.15 345.366 433.16 345.796 432.19C346.016 431.7 346.236 431.21 346.476 430.72C346.926 429.75 347.396 428.78 347.906 427.83C348.396 426.86 348.926 425.91 349.466 424.97C350.006 424.03 350.566 423.09 351.156 422.16C351.426 421.7 351.726 421.23 352.036 420.78C352.636 419.86 353.266 418.94 353.906 418.04C355.197 416.22 356.586 414.43 358.056 412.69ZM338.866 459.4C338.836 459.78 338.806 460.16 338.786 460.54C338.806 460.16 338.836 459.78 338.876 459.4C338.875 459.33 338.878 459.26 338.886 459.19C338.876 459.26 338.876 459.33 338.866 459.4ZM340.106 450.17C340.066 450.42 340.016 450.67 339.976 450.92C340.016 450.67 340.066 450.42 340.116 450.17H340.106ZM365.016 526.32V526.33C365.016 526.34 365.026 526.34 365.036 526.34L365.016 526.32Z" fill="#030303"/>
<path opacity="0.3" d="M367.897 528.879C352.08 515.531 341.861 496.723 339.269 476.19C336.677 455.656 341.902 434.898 353.906 418.039C352.33 419.626 350.806 421.289 349.334 423.027C342.352 431.302 337.067 440.872 333.783 451.189C330.499 461.507 329.279 472.37 330.193 483.159C331.107 493.948 334.137 504.451 339.11 514.069C344.083 523.686 350.902 532.231 359.177 539.213C375.89 553.315 397.52 560.201 419.309 558.355C441.098 556.509 461.262 546.083 475.364 529.37C476.832 527.63 478.214 525.848 479.511 524.024C464.912 538.693 445.329 547.336 424.652 548.235C403.975 549.135 383.716 542.225 367.897 528.879Z" fill="black"/>
</g>
<defs>
<filter id="filter0_bd_353_538" x="-245.838" y="83.4934" width="1162.94" height="1009.11" filterUnits="userSpaceOnUse" color-interpolation-filters="sRGB">
<feFlood flood-opacity="0" result="BackgroundImageFix"/>
<feGaussianBlur in="BackgroundImageFix" stdDeviation="1"/>
<feComposite in2="SourceAlpha" operator="in" result="effect1_backgroundBlur_353_538"/>
<feColorMatrix in="SourceAlpha" type="matrix" values="0 0 0 0 0 0 0 0 0 0 0 0 0 0 0 0 0 0 127 0" result="hardAlpha"/>
<feOffset dy="4"/>
<feGaussianBlur stdDeviation="12"/>
<feComposite in2="hardAlpha" operator="out"/>
<feColorMatrix type="matrix" values="0 0 0 0 0 0 0 0 0 0 0 0 0 0 0 0 0 0 0.25 0"/>
<feBlend mode="normal" in2="effect1_backgroundBlur_353_538" result="effect2_dropShadow_353_538"/>
<feBlend mode="normal" in="SourceGraphic" in2="effect2_dropShadow_353_538" result="shape"/>
</filter>
<linearGradient id="paint0_linear_353_538" x1="3.52267" y1="123.722" x2="634.351" y2="1067.26" gradientUnits="userSpaceOnUse">
<stop stop-color="white" stop-opacity="0.4"/>
<stop offset="1" stop-color="#747474" stop-opacity="0.1"/>
</linearGradient>
<clipPath id="clip0_353_538">
<rect width="909" height="453" fill="white" transform="translate(-152 291)"/>
</clipPath>
</defs>
</svg>
