<svg width="696" height="742" viewBox="0 0 696 742" fill="none" xmlns="http://www.w3.org/2000/svg">
<g filter="url(#filter0_bd_353_392)">
<path fill-rule="evenodd" clip-rule="evenodd" d="M207.627 31.7777C293.705 -38.7684 420.482 72.2962 531.584 65.7108C648.918 58.756 766.995 -67.9449 867.721 -7.3479C967.034 52.3996 912.468 212.604 954.979 320.428C999.927 434.435 1137.73 516.24 1122.07 637.776C1106.32 760.002 992.423 855.057 879.689 904.82C777.895 949.753 665.725 887.981 554.452 888.33C447.352 888.667 339.283 950.667 241.563 906.824C137.231 860.014 39.6146 764.59 25.6824 651.091C12.022 539.807 142.66 466.125 174.262 358.557C205.898 250.871 120.823 102.919 207.627 31.7777Z" fill="url(#paint0_linear_353_392)" shape-rendering="crispEdges"/>
</g>
<g clip-path="url(#clip0_353_392)">
<path d="M227.867 381.863C227.809 461.771 258.823 538.566 314.344 595.996C369.866 653.426 445.539 686.984 525.348 689.568C528.72 689.682 532.107 689.737 535.509 689.734C608.984 689.845 680.053 663.53 735.761 615.586C743.516 608.933 750.919 601.911 757.971 594.519C773.506 578.25 787.221 560.333 798.87 541.085C815.477 513.648 827.669 483.768 835 452.54V311.185C827.501 279.265 814.926 248.758 797.755 220.83C787.949 226.804 776.338 229.087 765.003 227.271C753.668 225.454 743.35 219.657 735.899 210.917C728.448 202.178 724.352 191.068 724.344 179.58C724.336 168.092 728.418 156.977 735.857 148.228C691.413 110.092 637.026 85.4238 579.072 77.1149C521.118 68.806 461.997 77.2006 408.641 101.315C405.532 102.721 402.452 104.18 399.402 105.691C297.765 155.953 227.867 260.739 227.867 381.863Z" fill="#030303"/>
<path d="M169 742L735.761 741.121V450.361C735.436 450.317 735.076 450.273 734.681 450.22C729.675 449.579 719.101 448.339 704.206 447.206C669.051 444.534 609.859 442.451 543.105 450.22C532.926 451.407 522.59 452.83 512.095 454.491C503.374 455.889 494.58 457.474 485.713 459.246C481.858 460.019 477.994 460.834 474.121 461.689C465.681 463.544 457.221 465.597 448.74 467.85C420.146 475.328 392.262 485.297 365.406 497.643C354.182 502.872 343.134 508.576 332.349 514.825C316.514 523.953 301.382 534.249 287.077 545.629C231.837 589.721 188.066 653.297 169 742Z" fill="#030303"/>
<path d="M268.239 742H835V451.24C834.675 451.196 834.315 451.152 833.92 451.099C833.182 451.003 832.33 450.897 831.355 450.783C825.717 450.097 816.153 449.051 803.445 448.085C794.619 447.417 784.274 446.784 772.664 446.327C751.095 445.492 725.178 445.29 696.61 446.67C679.37 447.505 661.156 448.911 642.344 451.099C632.166 452.286 621.829 453.709 611.334 455.37C602.614 456.768 593.82 458.353 584.952 460.125C581.097 460.898 577.233 461.713 573.36 462.568C564.92 464.423 556.46 466.476 547.979 468.729C526.551 474.374 505.502 481.372 484.958 489.681C478.126 492.458 471.354 495.405 464.645 498.522C460.851 500.289 457.077 502.114 453.324 503.997C445.983 507.671 438.737 511.573 431.588 515.704C420.508 522.1 409.765 529.064 399.402 536.568C398.611 537.121 397.821 537.701 397.03 538.282C393.412 540.953 389.841 543.695 386.316 546.508C385.113 547.474 383.91 548.441 382.715 549.425C376.717 554.347 370.862 559.5 365.151 564.884C351.119 578.116 338.312 592.592 326.887 608.133C300.294 644.324 279.797 688.355 268.274 741.842C268.265 741.895 268.248 741.947 268.239 742Z" fill="#181818"/>
<path opacity="0.1" d="M565.2 565.552C562.804 560.244 580.211 547.194 604.081 536.404C627.95 525.614 649.242 521.17 651.638 526.478C654.034 531.787 636.627 544.837 612.757 555.627C588.888 566.417 567.596 570.861 565.2 565.552Z" fill="black"/>
<path opacity="0.1" d="M478.256 587.524C475.86 582.216 493.267 569.166 517.136 558.376C541.006 547.586 562.298 543.142 564.694 548.45C567.09 553.758 549.682 566.808 525.813 577.598C501.944 588.388 480.652 592.832 478.256 587.524Z" fill="black"/>
<path d="M625.077 196.344L618.47 196.951L595.984 199.023L559.686 202.363L556.07 163.085C555.727 159.393 556.114 155.669 557.211 152.127C558.307 148.585 560.091 145.294 562.46 142.442C564.828 139.59 567.736 137.234 571.016 135.509C574.296 133.783 577.883 132.722 581.574 132.385C589.466 131.651 597.387 133.443 604.197 137.504C611.006 141.564 616.351 147.682 619.463 154.977L619.468 154.99C620.999 158.581 621.959 162.389 622.315 166.277L625.077 196.344Z" fill="#030303"/>
<path d="M597.441 179.094C597.441 179.094 594.806 201.065 597.441 201.944C600.075 202.823 608.857 206.338 608.857 206.338L593.049 223.036L570.216 223.915L564.946 207.217L570.216 202.823L571.972 180.851L597.441 179.094Z" fill="#FFB8B8"/>
<path opacity="0.1" d="M597.441 179.094C597.441 179.094 594.806 201.065 597.441 201.944C600.075 202.823 608.857 206.338 608.857 206.338L593.049 223.036L570.216 223.915L564.946 207.217L570.216 202.823L571.972 180.851L597.441 179.094Z" fill="black"/>
<path d="M631.691 219.521L638.717 280.162L648.377 341.682C648.377 341.682 656.281 371.563 641.351 370.684C626.422 369.805 636.96 339.924 636.96 339.924L622.909 288.071L616.761 235.34L631.691 219.521Z" fill="#FFB8B8"/>
<path d="M537.722 220.4L531.575 282.798L495.567 317.074C495.567 317.074 471.855 329.378 476.247 337.287C480.638 345.197 505.228 324.105 505.228 324.105L548.261 293.345L550.896 254.675L548.261 216.005L537.722 220.4Z" fill="#FFB8B8"/>
<path d="M629.057 515.695C629.057 515.695 641.352 536.787 635.204 539.424C629.057 542.06 611.492 549.97 611.492 549.97C611.492 549.97 584.268 555.243 585.146 547.334C586.024 539.424 596.563 539.424 596.563 539.424C596.563 539.424 611.437 524.483 611.025 519.21C610.614 513.937 629.057 515.695 629.057 515.695Z" fill="#030303"/>
<path opacity="0.1" d="M629.057 515.695C629.057 515.695 641.352 536.787 635.204 539.424C629.057 542.06 611.492 549.97 611.492 549.97C611.492 549.97 584.268 555.243 585.146 547.334C586.024 539.424 596.563 539.424 596.563 539.424C596.563 539.424 611.437 524.483 611.025 519.21C610.614 513.937 629.057 515.695 629.057 515.695Z" fill="black"/>
<path d="M551.773 343.439L549.138 357.501L568.459 435.719L579.876 448.023L609.736 519.21H631.691C631.691 519.21 617.64 463.843 607.101 447.144C596.563 430.446 578.998 345.197 578.998 345.197L551.773 343.439Z" fill="#030303"/>
<path opacity="0.1" d="M588.219 404.52L572.411 407.156L568.459 435.719L579.876 448.023L609.736 519.21H631.691C631.691 519.21 617.64 463.842 607.101 447.144C596.563 430.446 578.998 345.197 578.998 345.197L588.219 404.52Z" fill="black"/>
<path d="M615.005 319.71C615.005 319.71 629.056 346.076 606.223 378.594C583.389 411.111 573.728 443.629 573.728 443.629C573.728 443.629 575.485 502.512 557.042 526.241L550.016 542.061L528.939 529.757C528.939 529.757 552.651 493.724 547.382 449.781C547.382 449.781 542.112 435.719 547.382 424.294C552.651 412.869 566.703 358.38 566.703 358.38L549.138 357.501C549.138 357.501 543.869 324.105 552.651 319.71C561.433 315.316 615.005 319.71 615.005 319.71Z" fill="#030303"/>
<path d="M535.087 527.12C535.087 527.12 515.766 543.818 504.349 545.576C492.932 547.334 492.932 555.243 506.106 557.001C506.106 557.001 532.452 567.547 549.139 559.638V537.666L535.087 527.12Z" fill="#030303"/>
<path d="M582.95 188.322C571.309 188.322 561.873 178.878 561.873 167.229C561.873 155.58 571.309 146.136 582.95 146.136C594.591 146.136 604.027 155.58 604.027 167.229C604.027 178.878 594.591 188.322 582.95 188.322Z" fill="#FFB8B8"/>
<path d="M600.076 207.217L597.002 201.504C597.002 201.504 638.718 216.005 634.327 223.036C629.935 230.067 617.64 240.613 617.64 240.613V254.675C617.64 254.675 604.467 295.102 617.64 317.952C630.814 340.803 545.626 333.772 548.261 317.952C550.895 302.133 554.408 285.435 550.895 277.525C547.383 269.615 541.235 260.827 546.504 239.734L533.331 225.673C533.331 225.673 537.722 211.611 549.139 208.974C560.556 206.338 569.777 203.262 569.777 203.262C569.777 203.262 564.069 214.248 573.729 215.126C583.39 216.005 600.076 207.217 600.076 207.217Z" fill="#C21313"/>
<path d="M618.471 196.951C616.416 199.373 613.692 201.135 610.641 202.015C607.59 202.896 604.347 202.856 601.319 201.9C598.291 200.944 595.612 199.116 593.617 196.643C591.622 194.171 590.401 191.165 590.107 188.001C607.865 177.934 602.069 164.389 586.555 149.4C586.262 146.212 586.923 143.01 588.454 140.199C589.986 137.389 592.318 135.098 595.154 133.618C600.54 135.141 605.518 137.849 609.725 141.544C613.931 145.24 617.258 149.829 619.464 154.977L619.469 154.99L622.239 185.039C622.437 187.175 622.206 189.33 621.559 191.376C620.912 193.422 619.862 195.318 618.471 196.951Z" fill="#030303"/>
<path d="M593.744 156.588L561.406 157.33L561.106 144.239C563.668 140.593 567.056 137.606 570.993 135.521L593.25 135.014L593.744 156.588Z" fill="#030303"/>
<path d="M528.878 742H835V559.945C823.609 561.149 814.994 549.065 804.622 543.484C796.508 539.116 786.9 538.756 777.687 538.703C762.836 538.624 747.713 539.143 733.653 543.924C729.138 545.448 724.806 547.467 720.734 549.944C712.022 555.252 704.716 562.705 700.834 572.056C698.489 577.698 696.803 584.615 691.191 587.032C688.065 588.385 684.49 587.902 681.118 587.401C669.271 585.625 657.423 583.853 645.576 582.084C636.812 580.765 627.177 579.623 619.695 584.377C608.155 591.707 608.146 608.326 610.087 621.869C612.037 635.413 613.811 651.39 603.799 660.706C591.662 672.008 572.139 664.951 555.734 667.315C548.069 668.534 540.905 671.899 535.069 677.02C529.234 682.141 524.966 688.81 522.757 696.256C518.524 711.346 523.354 727.165 528.878 742Z" fill="#030303"/>
<path d="M687.48 741.898V676.501" stroke="#181818" stroke-width="2" stroke-miterlimit="10"/>
<path d="M687.48 685.749C682.376 685.749 678.239 681.609 678.239 676.501C678.239 671.393 682.376 667.253 687.48 667.253C692.584 667.253 696.722 671.393 696.722 676.501C696.722 681.609 692.584 685.749 687.48 685.749Z" fill="#181818"/>
<path d="M687.48 716.807C687.48 716.807 688.8 688.392 715.864 691.694L687.48 716.807Z" fill="#181818"/>
<path d="M365.151 343H382.716V611.051H365.151V343Z" fill="#181818"/>
<path d="M259.765 334.211H488.103V441.432H259.765V334.211Z" fill="#181818"/>
<path d="M302.797 362.335H448.582V365.85H302.797V362.335Z" fill="#C21313"/>
<path d="M302.797 372.881H448.582V376.396H302.797V372.881Z" fill="#C21313"/>
<path d="M302.797 383.427H448.582V386.943H302.797V383.427Z" fill="#C21313"/>
<path d="M373.933 346.515C367.143 346.515 361.638 341.007 361.638 334.211C361.638 327.416 367.143 321.907 373.933 321.907C380.724 321.907 386.229 327.416 386.229 334.211C386.229 341.007 380.724 346.515 373.933 346.515Z" fill="#C21313"/>
<path d="M320.361 428.249C314.056 428.249 308.945 423.134 308.945 416.824C308.945 410.514 314.056 405.399 320.361 405.399C326.667 405.399 331.778 410.514 331.778 416.824C331.778 423.134 326.667 428.249 320.361 428.249Z" stroke="#6C63FF" stroke-width="2" stroke-miterlimit="10"/>
<path d="M324.752 414.187C323.782 414.187 322.996 413.4 322.996 412.429C322.996 411.459 323.782 410.672 324.752 410.672C325.722 410.672 326.509 411.459 326.509 412.429C326.509 413.4 325.722 414.187 324.752 414.187Z" fill="#C21313"/>
<path d="M315.97 414.187C315 414.187 314.214 413.4 314.214 412.429C314.214 411.459 315 410.672 315.97 410.672C316.94 410.672 317.727 411.459 317.727 412.429C317.727 413.4 316.94 414.187 315.97 414.187Z" fill="#C21313"/>
<path d="M325.631 419.46C325.631 419.46 321.24 425.612 315.092 419.46H325.631Z" fill="#C21313"/>
<path d="M324.753 406.275L315.971 393.973L311.91 409.149C311.91 409.149 315.971 403.637 324.753 406.275Z" fill="#C21313"/>
</g>
<defs>
<filter id="filter0_bd_353_392" x="0.68457" y="-43.7114" width="1146.62" height="994.212" filterUnits="userSpaceOnUse" color-interpolation-filters="sRGB">
<feFlood flood-opacity="0" result="BackgroundImageFix"/>
<feGaussianBlur in="BackgroundImageFix" stdDeviation="5"/>
<feComposite in2="SourceAlpha" operator="in" result="effect1_backgroundBlur_353_392"/>
<feColorMatrix in="SourceAlpha" type="matrix" values="0 0 0 0 0 0 0 0 0 0 0 0 0 0 0 0 0 0 127 0" result="hardAlpha"/>
<feOffset dy="4"/>
<feGaussianBlur stdDeviation="12"/>
<feComposite in2="hardAlpha" operator="out"/>
<feColorMatrix type="matrix" values="0 0 0 0 0 0 0 0 0 0 0 0 0 0 0 0 0 0 0.25 0"/>
<feBlend mode="normal" in2="effect1_backgroundBlur_353_392" result="effect2_dropShadow_353_392"/>
<feBlend mode="normal" in="SourceGraphic" in2="effect2_dropShadow_353_392" result="shape"/>
</filter>
<linearGradient id="paint0_linear_353_392" x1="206.515" y1="32.5692" x2="888.309" y2="918.255" gradientUnits="userSpaceOnUse">
<stop stop-color="white" stop-opacity="0.4"/>
<stop offset="1" stop-color="white" stop-opacity="0.1"/>
</linearGradient>
<clipPath id="clip0_353_392">
<rect width="666" height="668" fill="white" transform="matrix(-1 0 0 1 835 74)"/>
</clipPath>
</defs>
</svg>
