<svg width="61" height="61" viewBox="0 0 61 61" fill="none" xmlns="http://www.w3.org/2000/svg">
<path fill-rule="evenodd" clip-rule="evenodd" d="M9.08257 30.6823C9.08257 18.9462 18.5965 9.43225 30.3325 9.43225C42.0685 9.43225 51.5825 18.9462 51.5825 30.6823C51.5825 42.4183 42.0685 51.9323 30.3325 51.9323C26.152 51.9323 22.2607 50.7278 18.9775 48.6475C18.3664 48.2605 17.6177 48.157 16.9246 48.3637L9.72675 50.512L12.4368 44.1705C12.7572 43.421 12.692 42.5625 12.2622 41.87C10.2468 38.6222 9.08257 34.792 9.08257 30.6823ZM30.3325 4.43225C15.8351 4.43225 4.08257 16.1848 4.08257 30.6823C4.08257 35.2775 5.26542 39.603 7.34415 43.364L3.0337 53.4498C2.65264 54.3415 2.82155 55.373 3.46707 56.0965C4.1126 56.8203 5.11832 57.1053 6.0475 56.8278L17.296 53.471C21.1386 55.6735 25.5918 56.9323 30.3325 56.9323C44.83 56.9323 56.5825 45.1798 56.5825 30.6823C56.5825 16.1848 44.83 4.43225 30.3325 4.43225ZM36.0638 36.1383L32.7783 38.4525C31.2395 37.576 29.5383 36.3525 27.8318 34.646C26.0578 32.872 24.7426 31.0405 23.7728 29.3605L25.8608 27.5883C26.7568 26.8278 27.002 25.5456 26.45 24.508L23.7896 19.508C23.4314 18.8347 22.7854 18.3618 22.0354 18.2236C21.2853 18.0855 20.5133 18.2973 19.9387 18.7987L19.1499 19.4871C17.2531 21.1426 16.1313 23.863 17.061 26.6175C18.025 29.473 20.0821 33.9672 24.2963 38.1815C28.8303 42.7155 33.4358 44.501 36.129 45.1945C38.299 45.753 40.3525 45.0043 41.7995 43.8253L43.2783 42.6203C43.9108 42.105 44.252 41.3133 44.1925 40.4995C44.1328 39.6858 43.6798 38.9523 42.9788 38.5345L38.783 36.0345C37.9355 35.5298 36.8705 35.5703 36.0638 36.1383Z" fill="white"/>
</svg>
