<svg width="50" height="51" viewBox="0 0 50 51" fill="none" xmlns="http://www.w3.org/2000/svg">
<mask id="mask0_206_306" style="mask-type:alpha" maskUnits="userSpaceOnUse" x="0" y="0" width="50" height="51">
<circle cx="25" cy="25.5" r="25" fill="#5BF978"/>
<circle cx="25" cy="25.5" r="25" fill="black" fill-opacity="0.2"/>
</mask>
<g mask="url(#mask0_206_306)">
<path d="M42.4999 0.5H7.49994C3.3578 0.5 -6.10352e-05 3.85786 -6.10352e-05 8V43C-6.10352e-05 47.1421 3.3578 50.5 7.49994 50.5H42.4999C46.6421 50.5 49.9999 47.1421 49.9999 43V8C49.9999 3.85786 46.6421 0.5 42.4999 0.5Z" fill="#45D354"/>
<path d="M30.0781 27.1602C29.7851 26.9648 29.4921 26.8672 29.1992 27.2578L28.0273 28.8203C27.7343 29.0156 27.539 29.1133 27.1484 28.918C25.6835 28.1367 23.6328 27.2578 21.8749 24.3281C21.7773 23.9375 21.9726 23.7422 22.1679 23.5469L23.0468 22.1797C23.2421 21.9844 23.1445 21.7891 23.0468 21.5938L21.8749 18.7617C21.582 17.9805 21.289 18.0781 20.996 18.0781H20.2148C20.0195 18.0781 19.6288 18.1758 19.2382 18.5664C17.0898 20.7148 17.9687 23.7422 19.5312 25.6953C19.8242 26.0859 21.7773 29.6016 25.9765 31.457C29.1015 32.8242 29.7851 32.6289 30.664 32.4336C31.7382 32.3359 32.8124 31.457 33.3007 30.5781C33.3984 30.2852 33.8867 29.0156 33.496 28.8203M25.7812 38C21.7773 38 18.7499 35.8516 18.7499 35.8516L13.9648 37.1211L15.1367 32.4336C15.1367 32.4336 13.1835 29.4062 13.1835 25.5977C13.1835 18.5664 18.9453 12.707 26.0742 12.707C32.7148 12.707 38.3788 17.8828 38.3788 25.1094C38.3788 32.1406 32.7148 37.9023 25.7812 38ZM10.2538 40.832L18.3593 38.5859C20.7068 39.7877 23.3231 40.3678 25.9586 40.2707C28.594 40.1737 31.1606 39.4027 33.4133 38.0315C35.666 36.6603 37.5297 34.7346 38.8264 32.4381C40.1231 30.1417 40.8096 27.5513 40.8203 24.9141C40.8203 16.5156 34.1796 9.77734 25.7812 9.77734C23.0856 9.78424 20.4389 10.4972 18.1045 11.8452C15.7702 13.1932 13.8298 15.1293 12.4764 17.4606C11.1231 19.7918 10.4042 22.4369 10.3912 25.1325C10.3781 27.8281 11.0715 30.48 12.4023 32.8242" fill="white"/>
</g>
</svg>
